<?xml version="1.0"?>
<svg xmlns="http://www.w3.org/2000/svg" viewBox="0 0 512 512" width="512" height="512"><g id="Out_line" data-name="Out line"><path d="M280,248a48,48,0,1,1,48-48A48.05436,48.05436,0,0,1,280,248Zm0-80a32,32,0,1,0,32,32A32.036,32.036,0,0,0,280,168Z"/><path d="M440,184h-8V166.62A24.02166,24.02166,0,0,0,448,144V128a23.91212,23.91212,0,0,0-8.29-18.12,7.36328,7.36328,0,0,0-.42993-1.19A158.4348,158.4348,0,0,0,295.34009,16H258.21a158.36829,158.36829,0,0,0-149.1,105.49L48.46,293.34a7.98149,7.98149,0,0,0,4.39,10.01l51.55,22.09L112.02,424.61A8.00473,8.00473,0,0,0,120,432h56v64h16V432h16v64h16V432h16v64h16V432h16v64h16V472h32v24h16V472h32v24h16V432a7.99782,7.99782,0,0,0-8-8V408h16a24.03189,24.03189,0,0,0,24-24V368a24.0216,24.0216,0,0,0-16-22.62V328h24a24.03189,24.03189,0,0,0,24-24V288a24.0216,24.0216,0,0,0-16-22.62V248h8a24.03189,24.03189,0,0,0,24-24V208A24.03185,24.03185,0,0,0,440,184Zm-8-56v16a8.0107,8.0107,0,0,1-8,8h-8.25a143.03187,143.03187,0,0,0-16.02-32H424A8.01066,8.01066,0,0,1,432,128ZM416,248v16h-7.02a141.39482,141.39482,0,0,0,6.79-16ZM280,328a128.36084,128.36084,0,0,1-56-12.87V277.91992A95.95787,95.95787,0,1,0,332.99,120h46.93994A128.00921,128.00921,0,0,1,280,328Zm65.92993,0H384v16H328a23.87258,23.87258,0,0,0-1.3-7.78A141.63636,141.63636,0,0,0,345.92993,328ZM224,368h80a8,8,0,0,1,0,16H224Zm80-16H224V332.68994a144.47173,144.47173,0,0,0,87.24,7.9A8.09334,8.09334,0,0,1,312,344,8.01074,8.01074,0,0,1,304,352ZM200,200a80,80,0,1,1,80,80A80.09338,80.09338,0,0,1,200,200Zm8,64V416H127.40991L119.98,319.39a7.99954,7.99954,0,0,0-4.83-6.74011L66.04,291.6,104.01,184H136a16.02119,16.02119,0,0,1,16,16v32h16V200a32.02961,32.02961,0,0,0-32-32H109.65991l14.53-41.18A142.34034,142.34034,0,0,1,258.21,32h37.13013A142.4603,142.4603,0,0,1,418.95,104H280a95.94007,95.94007,0,0,0-71.48,160Zm16,152V400h80a8,8,0,0,1,0,16Zm96,40H288V440h32Zm1.87-32A23.90018,23.90018,0,0,0,328,408h32v16ZM368,456H336V440h32Zm32-72a8.01074,8.01074,0,0,1-8,8H321.87a23.94591,23.94591,0,0,0,0-32H392a8.01066,8.01066,0,0,1,8,8Zm32-80a8.01074,8.01074,0,0,1-8,8H370.41992a145.29751,145.29751,0,0,0,29.26-32H424a8.01066,8.01066,0,0,1,8,8Zm16-80a8.0107,8.0107,0,0,1-8,8H420.41992A144.23433,144.23433,0,0,0,424,200h16a8.01066,8.01066,0,0,1,8,8Z"/><path d="M151.126,146.6626l-15.08789-5.3252,3.24414-9.19238A126.31476,126.31476,0,0,1,258.2124,48h37.12354A126.93276,126.93276,0,0,1,371.46,73.62061l-9.65527,12.75878A110.83384,110.83384,0,0,0,295.33594,64H258.2124a110.28907,110.28907,0,0,0-103.84228,73.47021Z"/><circle cx="280" cy="88" r="8"/><circle cx="224" cy="103.00515" r="8"/><circle cx="183.00515" cy="144" r="8"/><circle cx="280" cy="312" r="8"/><circle cx="336" cy="296.99485" r="8"/><circle cx="376.99485" cy="256" r="8"/><circle cx="392" cy="200" r="8"/><circle cx="376.99485" cy="144" r="8"/></g></svg>
